<?xml version="1.0" encoding="UTF-8" standalone="no"?>

<svg
   width="107.57708mm"
   height="16.049131mm"
   viewBox="0 0 107.57708 16.049131"
   version="1.1"
   xmlns="http://www.w3.org/2000/svg">
  
  <style>
    .waterDrop {
      fill: #00a9d3;
      fill-opacity: 1;
      fill-rule: nonzero;
      stroke: none;
    }
    .waterDropHighlight {
      fill: #ffffff;
      fill-opacity: 1;
      fill-rule: nonzero;
      stroke: none;
    }
    .letter {
      fill: #123646;
      fill-opacity: 1;
      fill-rule: nonzero;
      stroke: none;
    }
  </style>

  <g
     id="layer1"
     transform="translate(-2.8205388,-2.9276712)">
    <g
       id="g1928"
       transform="matrix(0.35277777,0,0,-0.35277777,-16.033775,219.84222)">
      <g
         id="g1342"
         transform="translate(212.7275,581.2097)">
        <path
           d="m 0,0 c -0.953,1.337 -2.033,2.854 -2.958,5.092 h -0.008 c -0.1,0.187 -0.248,0.314 -0.422,0.314 -0.173,0 -0.321,-0.127 -0.421,-0.314 H -3.82 C -4.745,2.854 -5.824,1.337 -6.777,0 c -1.275,-1.79 -2.375,-3.334 -2.375,-5.775 -0.002,-0.781 0.15,-1.542 0.452,-2.262 0.585,-1.397 1.674,-2.495 3.067,-3.093 0.71,-0.304 1.462,-0.457 2.234,-0.457 h 0.021 c 0.772,0 1.524,0.153 2.234,0.457 0.69,0.294 1.307,0.713 1.832,1.246 1.091,1.099 1.69,2.559 1.687,4.108 0,2.441 -1.1,3.985 -2.375,5.776"
           class="waterDrop"
           id="waterDrop" />
      </g>
      <g
         id="g1346"
         transform="translate(207.1143,572.4308)">
        <path
           d="M 0,0 C -0.188,-0.014 -0.37,0.067 -0.485,0.216 -1.02,0.904 -1.339,1.735 -1.402,2.604 -1.524,4.283 -0.92,5.425 -0.179,6.641 -0.018,6.905 0.327,6.989 0.592,6.83 0.854,6.673 0.94,6.333 0.784,6.07 0.783,6.068 0.782,6.066 0.781,6.065 0.119,4.978 -0.38,4.039 -0.282,2.686 -0.235,2.034 0.004,1.411 0.405,0.895 0.592,0.653 0.548,0.306 0.307,0.118 0.305,0.117 0.304,0.115 0.302,0.114 0.214,0.048 0.109,0.008 0,0"
           class="waterDropHighlight"
           id="waterDropHighlight" />
      </g>
      <g
         id="g1350"
         transform="translate(288.708,572.1091)">
        <path
           d="m 0,0 c -2.352,1.658 -3.989,3.894 -4.912,6.707 -0.672,1.889 -1.007,4.407 -1.007,7.556 0,3.023 0.335,5.499 1.007,7.431 0.882,2.77 2.508,4.963 4.881,6.58 2.371,1.615 5.173,2.424 8.406,2.424 3.274,0 6.129,-0.819 8.564,-2.455 2.434,-1.638 4.05,-3.695 4.848,-6.172 0.21,-0.671 0.357,-1.343 0.441,-2.015 V 19.93 c 0,-0.42 -0.231,-0.671 -0.692,-0.755 l -5.668,-0.819 h -0.126 c -0.377,0 -0.629,0.21 -0.756,0.63 0,0.209 -0.021,0.377 -0.062,0.503 -0.085,0.337 -0.169,0.631 -0.252,0.882 -0.378,1.175 -1.133,2.141 -2.267,2.897 -1.134,0.755 -2.478,1.133 -4.03,1.133 -1.596,0 -2.95,-0.409 -4.062,-1.227 C 3.201,22.355 2.456,21.23 2.078,19.804 1.658,18.46 1.448,16.593 1.448,14.2 1.448,11.891 1.637,10.022 2.015,8.596 2.434,7.126 3.19,5.96 4.282,5.101 5.373,4.24 6.738,3.811 8.375,3.811 c 1.595,0 2.969,0.408 4.124,1.227 1.155,0.819 1.899,1.921 2.236,3.306 0.041,0.083 0.063,0.189 0.063,0.315 0.041,0.041 0.063,0.105 0.063,0.189 0.125,0.504 0.419,0.713 0.881,0.63 l 5.667,-0.882 c 0.21,-0.043 0.388,-0.137 0.535,-0.283 0.148,-0.148 0.2,-0.347 0.159,-0.599 C 21.977,7.042 21.871,6.559 21.787,6.266 20.989,3.579 19.373,1.448 16.939,-0.126 14.504,-1.7 11.649,-2.487 8.375,-2.487 5.142,-2.487 2.351,-1.658 0,0"
           class="letter lowerC"
           id="lowerC" />
      </g>
      <g
         id="g1354"
         transform="translate(65.1313,570.3039)">
        <path
           d="m 0,0 -11.623,43.231 -0.063,0.256 c 0,0.383 0.233,0.575 0.702,0.575 h 6.258 c 0.469,0 0.767,-0.214 0.894,-0.639 l 7.28,-29.118 c 0.042,-0.128 0.106,-0.193 0.191,-0.193 0.085,0 0.149,0.065 0.192,0.193 l 6.961,29.118 c 0.127,0.425 0.403,0.639 0.83,0.639 h 6.13 c 0.468,0 0.766,-0.214 0.894,-0.639 L 26.053,14.24 c 0.042,-0.128 0.106,-0.191 0.192,-0.191 0.085,0 0.149,0.063 0.191,0.191 l 7.152,29.183 c 0.128,0.425 0.426,0.639 0.894,0.639 h 5.939 c 0.596,0 0.83,-0.278 0.702,-0.831 L 30.076,0 C 29.949,-0.426 29.65,-0.638 29.182,-0.638 h -5.938 c -0.47,0 -0.767,0.212 -0.895,0.638 l -7.471,30.46 c -0.043,0.128 -0.107,0.202 -0.191,0.224 -0.086,0.02 -0.15,-0.055 -0.192,-0.224 L 7.343,0 C 7.215,-0.426 6.938,-0.638 6.513,-0.638 H 0.894 C 0.425,-0.638 0.127,-0.426 0,0"
           class="letter upperW"
           id="upperW" />
      </g>
      <g
         id="g1358"
         transform="translate(123.6523,577.3278)">
        <path
           d="M 0,0 C 1.454,1.079 2.181,2.45 2.181,4.111 V 7.04 c 0,0.206 -0.104,0.311 -0.312,0.311 h -5.232 c -2.202,0 -3.936,-0.416 -5.203,-1.247 -1.267,-0.831 -1.9,-2.014 -1.9,-3.55 0,-1.33 0.488,-2.357 1.464,-3.084 0.976,-0.727 2.232,-1.09 3.77,-1.09 2.034,0 3.778,0.539 5.232,1.62 m 3.178,24.108 c 1.993,-0.913 3.529,-2.171 4.61,-3.768 1.079,-1.599 1.62,-3.417 1.62,-5.451 V -6.105 C 9.408,-6.313 9.334,-6.49 9.189,-6.635 9.043,-6.781 8.867,-6.853 8.66,-6.853 H 2.928 c -0.208,0 -0.384,0.072 -0.529,0.218 -0.146,0.145 -0.218,0.322 -0.218,0.53 v 1.993 c 0,0.124 -0.042,0.196 -0.125,0.217 C 1.973,-3.874 1.89,-3.904 1.807,-3.988 -0.229,-6.23 -3.177,-7.352 -7.04,-7.352 c -3.114,0 -5.679,0.789 -7.693,2.368 -2.015,1.577 -3.022,3.924 -3.022,7.039 0,3.239 1.132,5.763 3.396,7.57 2.263,1.807 5.451,2.709 9.563,2.709 h 6.665 c 0.208,0 0.312,0.104 0.312,0.312 v 1.495 c 0,1.62 -0.478,2.875 -1.433,3.77 -0.956,0.892 -2.389,1.339 -4.298,1.339 -1.58,0 -2.857,-0.281 -3.832,-0.842 -0.976,-0.56 -1.588,-1.339 -1.838,-2.336 -0.124,-0.498 -0.415,-0.706 -0.872,-0.622 l -6.043,0.747 c -0.208,0.04 -0.384,0.114 -0.529,0.218 -0.146,0.104 -0.198,0.238 -0.156,0.404 0.332,2.534 1.692,4.611 4.081,6.231 2.387,1.619 5.388,2.429 9.001,2.429 2.617,0 4.922,-0.457 6.916,-1.371"
           class="letter lowerA"
           id="lowerA" />
      </g>
      <g
         id="g1362"
         transform="translate(155.7871,596.5173)">
        <path
           d="m 0,0 c -0.149,-0.149 -0.331,-0.223 -0.543,-0.223 h -6.514 c -0.213,0 -0.318,-0.108 -0.318,-0.319 v -15.39 c 0,-1.619 0.351,-2.789 1.053,-3.513 0.702,-0.724 1.82,-1.085 3.352,-1.085 h 1.916 c 0.213,0 0.393,-0.074 0.543,-0.223 0.149,-0.15 0.224,-0.33 0.224,-0.544 v -4.788 c 0,-0.469 -0.256,-0.746 -0.767,-0.831 l -3.32,-0.063 c -3.364,0 -5.875,0.574 -7.535,1.724 -1.661,1.149 -2.513,3.32 -2.555,6.513 v 18.2 c 0,0.211 -0.106,0.319 -0.319,0.319 h -3.64 c -0.214,0 -0.394,0.074 -0.542,0.223 -0.15,0.149 -0.224,0.33 -0.224,0.542 v 4.471 c 0,0.213 0.074,0.393 0.224,0.543 0.148,0.149 0.328,0.223 0.542,0.223 h 3.64 c 0.213,0 0.319,0.105 0.319,0.32 v 7.471 c 0,0.212 0.074,0.393 0.224,0.542 0.149,0.149 0.329,0.224 0.543,0.224 h 5.555 c 0.212,0 0.393,-0.075 0.543,-0.224 0.149,-0.149 0.224,-0.33 0.224,-0.542 V 6.099 c 0,-0.215 0.105,-0.32 0.318,-0.32 h 6.514 C -0.331,5.779 -0.149,5.705 0,5.556 0.149,5.406 0.224,5.226 0.224,5.013 V 0.542 C 0.224,0.33 0.149,0.149 0,0"
           class="letter lowerT"
           id="lowerT" />
      </g>
      <g
         id="g1366"
         transform="translate(168.8423,595.3991)">
        <path
           d="m 0,0 c -1.021,-0.771 -1.741,-1.845 -2.157,-3.219 -0.25,-0.71 -0.417,-1.626 -0.5,-2.752 -0.084,-0.208 0,-0.312 0.25,-0.312 h 12.691 c 0.208,0 0.313,0.104 0.313,0.312 -0.085,1.042 -0.21,1.834 -0.376,2.376 C 9.846,-2.094 9.105,-0.928 8.002,-0.094 6.897,0.74 5.511,1.157 3.845,1.157 2.302,1.157 1.021,0.771 0,0 m 17.973,-8.971 -0.062,-1.938 c 0,-0.5 -0.25,-0.75 -0.75,-0.75 H -2.407 c -0.209,0 -0.313,-0.105 -0.313,-0.312 0.125,-1.376 0.313,-2.314 0.563,-2.814 1.001,-3.001 3.438,-4.523 7.314,-4.564 2.834,0 5.085,1.166 6.752,3.501 0.166,0.25 0.375,0.376 0.625,0.376 0.166,0 0.313,-0.064 0.438,-0.189 l 3.876,-3.187 c 0.375,-0.292 0.438,-0.626 0.188,-1.001 -1.293,-1.834 -3.012,-3.25 -5.158,-4.251 -2.148,-1.001 -4.533,-1.5 -7.158,-1.5 -3.251,0 -6.012,0.728 -8.284,2.187 -2.272,1.459 -3.928,3.501 -4.97,6.127 -0.959,2.251 -1.438,5.377 -1.438,9.377 0,2.418 0.251,4.376 0.751,5.877 0.833,2.917 2.407,5.22 4.72,6.908 2.313,1.688 5.095,2.532 8.346,2.532 8.21,0 12.836,-4.293 13.878,-12.878 0.166,-1.043 0.25,-2.21 0.25,-3.501"
           class="letter lowerE"
           id="lowerE" />
      </g>
      <g
         id="g1370"
         transform="translate(226.3569,571.6569)">
        <path
           d="m 0,0 c -2.392,1.237 -4.239,2.968 -5.54,5.193 -1.301,2.225 -1.952,4.806 -1.952,7.745 v 15.549 c 0,2.938 0.651,5.519 1.952,7.744 1.301,2.224 3.148,3.945 5.54,5.162 2.393,1.217 5.163,1.826 8.311,1.826 3.105,0 5.854,-0.588 8.247,-1.762 2.392,-1.176 4.238,-2.833 5.54,-4.974 1.3,-2.141 1.952,-4.618 1.952,-7.429 0,-0.21 -0.074,-0.388 -0.221,-0.535 -0.148,-0.147 -0.326,-0.22 -0.535,-0.22 l -5.792,-0.315 c -0.504,0 -0.755,0.23 -0.755,0.693 0,2.475 -0.767,4.469 -2.298,5.98 -1.533,1.511 -3.579,2.267 -6.138,2.267 -2.561,0 -4.618,-0.756 -6.17,-2.267 -1.554,-1.511 -2.329,-3.505 -2.329,-5.98 V 12.622 c 0,-2.434 0.775,-4.407 2.329,-5.917 1.552,-1.512 3.609,-2.267 6.17,-2.267 2.559,0 4.605,0.744 6.138,2.235 1.531,1.489 2.298,3.473 2.298,5.949 0,0.462 0.251,0.692 0.755,0.692 l 5.792,-0.251 c 0.209,0 0.387,-0.063 0.535,-0.189 0.147,-0.126 0.221,-0.273 0.221,-0.44 C 24.05,9.579 23.398,7.072 22.098,4.91 20.796,2.748 18.95,1.08 16.558,-0.095 14.165,-1.271 11.416,-1.858 8.311,-1.858 5.163,-1.858 2.393,-1.239 0,0"
           class="letter upperC"
           id="upperC" />
      </g>
      <g
         id="g1374"
         transform="translate(256.1675,569.8893)">
        <path
           d="m 0,0 c -0.15,0.148 -0.224,0.329 -0.224,0.542 v 43.167 c 0,0.213 0.074,0.394 0.224,0.543 0.148,0.15 0.329,0.225 0.543,0.225 h 5.874 c 0.213,0 0.394,-0.075 0.543,-0.225 0.149,-0.149 0.224,-0.33 0.224,-0.543 V 0.542 C 7.184,0.329 7.109,0.148 6.96,0 6.811,-0.15 6.63,-0.224 6.417,-0.224 H 0.543 C 0.329,-0.224 0.148,-0.15 0,0"
           class="letter lowerL"
           id="lowerL" />
      </g>
      <g
         id="g1378"
         transform="translate(269.9092,569.8893)">
        <path
           d="m 0,0 c -0.15,0.148 -0.224,0.329 -0.224,0.542 v 31.163 c 0,0.212 0.074,0.393 0.224,0.543 0.149,0.148 0.329,0.223 0.543,0.223 h 5.875 c 0.212,0 0.393,-0.075 0.542,-0.223 0.149,-0.15 0.224,-0.331 0.224,-0.543 V 0.542 C 7.184,0.329 7.109,0.148 6.96,0 6.811,-0.15 6.63,-0.224 6.418,-0.224 H 0.543 C 0.329,-0.224 0.149,-0.15 0,0"
           class="letter lowerIBody"
           id="lowerIBody" />
      </g>
      <g
         id="g1382"
         transform="translate(357.4902,589.4523)">
        <path
           d="m 0,0 h -23.398 c -0.762,0 -1.177,0.888 -0.687,1.471 2.439,2.903 7.69,9.173 9.11,10.949 0.155,0.192 0.017,0.476 -0.229,0.476 h -7.819 c -0.25,0 -0.489,-0.104 -0.659,-0.287 L -35.429,-0.022 v 23.801 c 0,0.211 -0.074,0.39 -0.223,0.538 -0.15,0.149 -0.33,0.224 -0.543,0.224 h -5.874 c -0.214,0 -0.395,-0.075 -0.543,-0.224 -0.15,-0.148 -0.224,-0.327 -0.224,-0.538 V -19.07 c 0,-0.211 0.074,-0.391 0.224,-0.538 0.148,-0.149 0.329,-0.222 0.543,-0.222 h 5.874 c 0.213,0 0.393,0.073 0.543,0.222 0.149,0.147 0.223,0.327 0.223,0.538 v 14.705 l 12.192,-15.365 c 0.17,-0.215 0.429,-0.34 0.704,-0.34 h 7.119 c 0.321,0 0.499,0.372 0.297,0.622 l -9.32,11.192 c -0.305,0.379 -0.036,0.943 0.452,0.943 H 0 c 0.496,0 0.898,0.402 0.898,0.898 v 5.516 C 0.898,-0.403 0.496,0 0,0"
           class="letter lowerKSpecial"
           id="lowerKSpecial" />
      </g>
      <g
         id="g1386"
         transform="translate(205.6763,593.6765)">
        <path
           d="M 0,0 V -2.916 H 3.458 6.913 V 0 c 0,4.93 -4.011,8.94 -8.941,8.94 L -7.833,8.92 c -0.022,0.002 -0.041,0.012 -0.063,0.012 h -5.875 c -0.214,0 -0.395,-0.075 -0.543,-0.224 -0.15,-0.15 -0.224,-0.332 -0.224,-0.544 v -31.273 c 0,-0.214 0.074,-0.395 0.224,-0.544 0.148,-0.15 0.329,-0.224 0.543,-0.224 h 5.875 c 0.212,0 0.392,0.074 0.542,0.224 0.148,0.149 0.223,0.33 0.223,0.544 V 2.078 L -2.028,2.027 C -0.909,2.027 0,1.119 0,0"
           class="letter lowerR"
           id="lowerR" />
      </g>
      <g
         id="g1390"
         transform="translate(213.1836,590.7609)">
        <path
           d="m 0,0 h -8.101 c -0.281,0 -0.51,-0.229 -0.51,-0.511 v -1.355 c 0,-0.282 0.229,-0.51 0.51,-0.51 H 0 c 0.282,0 0.51,0.228 0.51,0.51 v 1.355 C 0.51,-0.229 0.282,0 0,0"
           class="letter lowerRCap"
           id="lowerRCap" />
      </g>
      <g
         id="g1394"
         transform="translate(276.3579,611.0436)">
        <path
           d="m 0,0 c 0,-1.76 -1.427,-3.186 -3.187,-3.186 -1.759,0 -3.186,1.426 -3.186,3.186 0,1.76 1.427,3.187 3.186,3.187 C -1.427,3.187 0,1.76 0,0"
           class="letter lowerIDot"
           id="lowerIDot" />
      </g>
    </g>
  </g>
</svg>
